<svg width="18" height="18" viewBox="0 0 18 18" fill="none" xmlns="http://www.w3.org/2000/svg">
<path d="M9 16.1255C12.3137 16.1255 15 13.4392 15 10.1255C15 7.90468 13.7934 4.95504 12 3.25099L10.5 5.24927L7.875 1.87427C5.25 3.74927 3 7.19635 3 10.1255C3 13.4392 5.68629 16.1255 9 16.1255Z" stroke="#FF9604" stroke-width="1.5" stroke-linejoin="round"/>
<path d="M9 13.8743C10.6568 13.8743 12 12.3633 12 10.4993C12 9.90603 11.8639 9.34855 11.625 8.86413L10.125 10.1243L7.875 7.12354C7.125 7.87353 6 9.0829 6 10.4993C6 12.3633 7.34314 13.8743 9 13.8743Z" stroke="#FF9604" stroke-width="1.5" stroke-linejoin="round"/>
</svg>
