<svg width="28" height="40" viewBox="0 0 28 40" fill="none" xmlns="http://www.w3.org/2000/svg">
<path d="M14.0467 2.66359C13.6516 2.73474 13.5644 2.7564 13.4244 2.80899C13.2222 2.88633 13.1289 2.92964 13.0511 2.97604C12.824 3.11835 12.348 3.57001 10.4844 5.41378C3.70222 12.1207 3.64622 12.1764 3.48756 12.5136C3.36311 12.7765 3.23556 13.2931 3.23556 13.5437C3.23556 13.7974 3.40356 14.4378 3.51867 14.6172C3.54978 14.6667 3.58711 14.7316 3.59956 14.7564C3.65867 14.8894 3.95734 15.2019 5.64356 16.891C6.65467 17.9026 8.27556 19.5236 9.24311 20.495C10.2138 21.4633 11.3742 22.6296 11.8253 23.0812C12.6156 23.8701 12.9484 24.1609 13.16 24.2413C13.1849 24.2506 13.2347 24.2723 13.2689 24.2908C13.3684 24.3465 13.6578 24.4115 13.9471 24.4455C14.3702 24.4981 14.8618 24.4146 15.2196 24.2382C15.5213 24.0866 15.7858 23.8577 16.6382 23.007C17.8111 21.8407 17.7956 21.9768 16.8311 20.9776C15.5991 19.703 15.5244 19.6288 15.3627 19.5855C15.2102 19.5422 15.0391 19.5731 14.9333 19.6597C14.9084 19.6814 14.8027 19.7432 14.7031 19.7958C14.532 19.8856 14.4978 19.8917 14.2022 19.8917C13.6951 19.8917 13.7729 19.9505 12.0524 18.2305C11.2404 17.4169 10.0022 16.1794 9.30222 15.4834C7.87111 14.0572 7.868 14.0511 7.84622 13.618C7.83067 13.3426 7.87733 13.1539 8.01733 12.9436C8.07333 12.8569 8.53067 12.3836 9.03156 11.8948C9.52933 11.406 10.7582 10.1934 11.76 9.20342C12.7618 8.21347 13.6298 7.37821 13.6889 7.34727C13.8444 7.26993 14.0871 7.20806 14.2333 7.20806C14.3764 7.20806 14.6191 7.26993 14.7778 7.34727C14.9022 7.40605 20.2658 12.7487 20.4089 12.9559C20.4618 13.0302 20.5022 13.1013 20.5022 13.1137C20.5022 13.1292 20.524 13.1818 20.5489 13.2282C20.58 13.2869 20.5956 13.4076 20.5956 13.5839C20.5956 14.0356 20.5676 14.0789 19.6342 15.0101L18.9031 15.7433V15.9567C18.9031 16.2104 18.8782 16.1733 19.4693 16.7982C19.7058 17.0456 20.0013 17.3581 20.1289 17.4942C20.7418 18.1501 20.888 18.2862 21.0156 18.314C21.3049 18.379 21.3236 18.3697 22.1013 17.6056C23.7222 16.0124 24.6213 15.106 24.7333 14.9606C24.8982 14.7378 25.032 14.4594 25.1098 14.1841C25.1689 13.9799 25.1689 13.2189 25.1098 13.0085C25.0164 12.6682 24.8951 12.4331 24.6276 12.0866C24.6027 12.0526 22.9662 10.4099 20.9907 8.43621C19.0151 6.45941 17.0582 4.49499 16.6413 4.07426C15.9724 3.39367 15.6613 3.10906 15.4467 2.97913C15.0951 2.76568 14.3702 2.60172 14.0467 2.66359Z" fill="white"/>
<path d="M21.0156 18.314C21.3049 18.379 21.3236 18.3697 22.1013 17.6056C23.7222 16.0124 24.6213 15.106 24.7333 14.9606C24.8982 14.7378 25.032 14.4594 25.1098 14.1841C25.1689 13.9799 25.1689 13.2189 25.1098 13.0085C25.0165 12.6682 24.8951 12.4331 24.6276 12.0866C24.6025 12.0524 22.9661 10.4098 20.9907 8.43621C19.0151 6.45941 17.0582 4.49499 16.6413 4.07426C15.9724 3.39368 15.6613 3.10906 15.4467 2.97913C15.0951 2.76568 14.3702 2.60172 14.0467 2.66359C13.6762 2.7303 13.5765 2.7535 13.4502 2.79948L13.4245 2.80899C13.2349 2.8815 13.141 2.9241 13.0659 2.96737L13.0511 2.97605C12.824 3.11835 12.348 3.57001 10.4845 5.41379C3.70223 12.1207 3.64622 12.1764 3.48755 12.5136C3.36505 12.7724 3.23954 13.2771 3.23565 13.5318L3.23556 13.5437C3.23556 13.7974 3.40357 14.4378 3.51868 14.6172C3.54979 14.6667 3.58711 14.7317 3.59955 14.7564C3.65497 14.8811 3.92096 15.1635 5.34337 16.5901L5.64356 16.891C6.52829 17.7761 7.87987 19.1279 8.85212 20.1027L9.24312 20.495C10.2138 21.4633 11.3742 22.6296 11.8253 23.0812C12.6032 23.8578 12.9379 24.1517 13.15 24.2374L13.16 24.2413C13.1849 24.2506 13.2347 24.2722 13.2689 24.2908C13.3653 24.3448 13.6399 24.4074 13.92 24.4422L13.9471 24.4455C14.3702 24.4981 14.8618 24.4145 15.2196 24.2382C15.5213 24.0866 15.7858 23.8577 16.6382 23.007C17.8111 21.8407 17.7956 21.9768 16.8311 20.9776L16.6134 20.7524C15.5894 19.6939 15.5143 19.6261 15.3627 19.5855C15.215 19.5435 15.0498 19.5712 14.9434 19.6518L14.9333 19.6597C14.9084 19.6814 14.8027 19.7432 14.7031 19.7958C14.5427 19.8799 14.5026 19.8906 14.2547 19.8917L14.2022 19.8917C13.6951 19.8917 13.7729 19.9505 12.0524 18.2305C11.2404 17.4169 10.0022 16.1794 9.30223 15.4834C7.87111 14.0573 7.86799 14.0511 7.84622 13.618L7.84494 13.5924C7.83367 13.3308 7.88172 13.1473 8.01734 12.9436C8.07335 12.8569 8.53068 12.3836 9.03157 11.8948C9.52935 11.406 10.7582 10.1934 11.76 9.20341C12.7618 8.21347 13.6298 7.3782 13.6889 7.34727C13.8396 7.27234 14.072 7.21194 14.2194 7.20824L14.2333 7.20805C14.372 7.20805 14.604 7.26612 14.7627 7.34006L14.7778 7.34727C14.9014 7.4057 20.1822 12.6654 20.4046 12.9501L20.4089 12.9559C20.4618 13.0302 20.5022 13.1013 20.5022 13.1137C20.5022 13.1292 20.524 13.1818 20.5489 13.2282C20.5781 13.2833 20.5936 13.3928 20.5954 13.5515L20.5956 13.5839C20.5956 14.0074 20.571 14.0719 19.7988 14.8456L19.6342 15.0101L18.9031 15.7433V15.9567C18.9031 16.1787 18.8841 16.178 19.2753 16.593L19.4693 16.7982C19.7058 17.0457 20.0013 17.3581 20.1289 17.4942C20.7418 18.1501 20.888 18.2862 21.0156 18.314ZM20.9686 13.0984C20.9688 13.1032 20.9689 13.1084 20.9689 13.1137C20.9689 13.1085 20.9688 13.1034 20.9686 13.0984ZM21.0622 13.5839C21.0622 13.4842 21.0579 13.3885 21.0467 13.3022C21.037 13.228 21.0177 13.1221 20.9669 13.0217L20.9619 13.0121L20.9607 13.0098C20.9583 13.0055 20.9561 13.0011 20.9542 12.9971C20.9468 12.9674 20.9392 12.9486 20.9385 12.9465C20.9302 12.924 20.9215 12.9053 20.9158 12.8935C20.9039 12.8689 20.8906 12.845 20.8789 12.8249C20.8546 12.7833 20.8236 12.7353 20.7897 12.6877L20.7897 12.6877C20.7559 12.6405 20.7001 12.5808 20.6654 12.5437C20.6155 12.4902 20.5483 12.4199 20.4673 12.3362C20.3049 12.1683 20.0818 11.941 19.819 11.6751C19.2929 11.143 18.6043 10.453 17.9166 9.76808C17.2289 9.08313 16.5414 8.40239 16.0177 7.88886C15.756 7.63228 15.5342 7.41642 15.3733 7.26239C15.2932 7.18565 15.2264 7.12255 15.1767 7.07686C15.1522 7.05436 15.1291 7.03353 15.1093 7.01657C15.0997 7.00835 15.0874 6.99805 15.0743 6.98786C15.0732 6.98704 15.035 6.95596 14.9832 6.93063L14.9832 6.93061C14.9822 6.93014 14.9813 6.92971 14.9803 6.92925C14.9795 6.92888 14.9788 6.92848 14.978 6.92811L14.978 6.92814C14.7696 6.82768 14.4601 6.74402 14.2333 6.74402C14.0098 6.74402 13.7084 6.8233 13.5001 6.92256L13.4802 6.93222C13.4773 6.93365 13.4744 6.93513 13.4716 6.93663C13.4181 6.96461 13.3744 7.00208 13.372 7.00402C13.3554 7.01755 13.3375 7.03305 13.3199 7.04861C13.2842 7.08026 13.2381 7.12244 13.1844 7.17248C13.0764 7.27312 12.9289 7.41336 12.7534 7.58225C12.402 7.92045 11.933 8.37826 11.4311 8.87428C10.4292 9.86429 9.20082 11.0765 8.70365 11.5647V11.5647C8.45087 11.8114 8.20847 12.0547 8.02119 12.2484C7.92763 12.3452 7.84616 12.4313 7.78339 12.5001C7.73434 12.5538 7.66799 12.6276 7.62819 12.6875L7.62817 12.6875C7.62761 12.6883 7.62707 12.6892 7.62651 12.69C7.62593 12.6909 7.62534 12.6917 7.62478 12.6926L7.6248 12.6926C7.42603 12.9934 7.36027 13.2817 7.38014 13.6411L7.38206 13.6797C7.38689 13.7741 7.39556 13.8975 7.43533 14.0271C7.48349 14.1839 7.56605 14.3204 7.67691 14.4626C7.88231 14.726 8.27032 15.112 8.97189 15.8112L8.97223 15.8115C9.67165 16.507 10.9094 17.744 11.7212 18.5574L11.7216 18.5577L12.0194 18.8556C12.6726 19.509 13.0424 19.8764 13.2958 20.0724C13.4539 20.1947 13.6064 20.2832 13.787 20.3256C13.9452 20.3628 14.1072 20.3558 14.2022 20.3558C14.3374 20.3558 14.468 20.3559 14.5873 20.3332C14.7103 20.3097 14.8055 20.2657 14.8868 20.224L14.9208 20.2063L14.9221 20.2056C14.9776 20.1763 15.0353 20.1442 15.0841 20.1154C15.1106 20.0998 15.1664 20.067 15.2139 20.0306C15.2169 20.0302 15.2204 20.03 15.2242 20.0301C15.2276 20.0303 15.2304 20.0308 15.2325 20.0312C15.2514 20.0451 15.292 20.0782 15.3732 20.1553C15.5339 20.308 15.797 20.5778 16.2759 21.0729L16.4947 21.2991C16.7517 21.5654 16.9078 21.7185 17.01 21.8441C17.0293 21.8679 17.0433 21.8868 17.0533 21.9013C17.0356 21.9273 17.0041 21.9693 16.9492 22.031C16.8304 22.1646 16.662 22.3285 16.4177 22.5703L16.3082 22.6788C16.308 22.679 16.3078 22.6793 16.3076 22.6795C15.4412 23.5442 15.231 23.7123 15.0106 23.8233C14.7456 23.9534 14.3637 24.0222 14.0365 23.9886L14.005 23.985L14.0019 23.9847C13.8722 23.9694 13.744 23.9473 13.6407 23.9239C13.589 23.9121 13.5476 23.901 13.5178 23.8915C13.4999 23.8859 13.4908 23.8823 13.4882 23.8813C13.4339 23.8522 13.368 23.8235 13.3267 23.8079L13.3267 23.8079C13.3047 23.7995 13.2221 23.7562 13.017 23.5777C12.8217 23.4078 12.5508 23.1479 12.1564 22.7543L12.1565 22.7542C11.7066 22.3039 10.5454 21.1368 9.57466 20.1685L9.57468 20.1684C8.60676 19.1967 6.98545 17.5752 5.97456 16.5638L5.97454 16.5639C5.13047 15.7184 4.63811 15.2218 4.34938 14.9202C4.20433 14.7687 4.11722 14.6731 4.06451 14.6106C4.03596 14.5767 4.02308 14.5588 4.01896 14.553L4.01695 14.5489C3.99786 14.5109 3.96029 14.4458 3.9279 14.393L3.91441 14.3712L3.91209 14.3676C3.91318 14.3693 3.89534 14.3372 3.86551 14.2538C3.83899 14.1797 3.81099 14.088 3.78539 13.9908C3.73021 13.7811 3.70222 13.6068 3.70222 13.5437C3.70223 13.4748 3.7234 13.3261 3.76826 13.1433C3.80931 12.976 3.8595 12.8234 3.90151 12.7292L3.90981 12.7111L3.91024 12.7102C3.94906 12.6277 3.93768 12.5879 4.83544 11.6771C5.60448 10.8969 7.00713 9.50729 9.61862 6.92449L10.8135 5.7428L10.8136 5.74274L11.1471 5.41301C11.8881 4.68096 12.3745 4.20512 12.7037 3.89245C13.0832 3.53207 13.2272 3.41537 13.2957 3.37139C13.3377 3.34673 13.4024 3.31462 13.5913 3.24237C13.6801 3.20904 13.7307 3.19296 14.0597 3.13291L14.1298 3.1202L14.1348 3.11927C14.1978 3.10723 14.3814 3.11388 14.6329 3.17064C14.8735 3.22494 15.0881 3.30513 15.2035 3.37517L15.204 3.37551L15.2188 3.38467C15.3749 3.48372 15.6462 3.72563 16.3076 4.39859L16.3089 4.39995C16.7266 4.82146 18.6841 6.7865 20.6597 8.7633L20.6599 8.76355C21.6475 9.75022 22.5502 10.6541 23.2091 11.3154C23.5385 11.6461 23.8068 11.9159 23.9941 12.105C24.0878 12.1997 24.1608 12.2737 24.211 12.3248C24.2361 12.3505 24.2548 12.3697 24.2671 12.3825C24.268 12.3834 24.2688 12.3842 24.2695 12.385C24.4983 12.6836 24.5863 12.8636 24.6596 13.1306L24.6603 13.1334L24.6615 13.1395C24.6626 13.1457 24.6645 13.1564 24.6666 13.1724C24.6705 13.2016 24.6743 13.2394 24.6775 13.2849C24.684 13.3759 24.6875 13.486 24.6875 13.5986C24.6875 13.7113 24.684 13.8209 24.6776 13.9109C24.6743 13.956 24.6706 13.9931 24.6667 14.0214C24.6635 14.045 24.6611 14.0558 24.6608 14.0573L24.6613 14.0557L24.6605 14.0586C24.5976 14.2813 24.4892 14.5058 24.3617 14.6798C24.3599 14.682 24.3565 14.686 24.351 14.6922C24.3413 14.7033 24.3279 14.7183 24.3103 14.7374C24.2751 14.7757 24.2271 14.8265 24.1656 14.8904C24.0428 15.018 23.8713 15.1927 23.6513 15.4139C23.2117 15.856 22.5832 16.4795 21.7733 17.2755V17.2755C21.5776 17.4678 21.4357 17.6066 21.3259 17.7085C21.2377 17.7903 21.182 17.8371 21.146 17.8639C21.1309 17.8521 21.1069 17.8321 21.0722 17.7999C20.9721 17.7073 20.8234 17.5542 20.5807 17.2957L20.4708 17.1783C20.4706 17.1782 20.4704 17.178 20.4703 17.1779C20.3415 17.0405 20.0449 16.7269 19.8077 16.4786C19.6585 16.3209 19.5538 16.2108 19.4768 16.1266C19.4207 16.0652 19.3885 16.0273 19.3698 16.0036V15.9343L19.9647 15.3377H19.9648C20.4137 14.8898 20.6971 14.6065 20.8527 14.3753C20.9423 14.2422 21.0021 14.1106 21.0334 13.961C21.0618 13.8256 21.0622 13.6927 21.0622 13.5839ZM20.968 13.0866C20.9682 13.0898 20.9684 13.0932 20.9686 13.0967C20.9684 13.0933 20.9682 13.0899 20.968 13.0866Z" fill="black"/>
<path d="M13.1289 13.1694C12.684 13.3179 12.6373 13.355 11.6449 14.3388L10.7022 15.2669V15.4772V15.6876L11.5764 16.5754C12.8302 17.85 12.8209 17.8407 12.9982 17.8624C13.2036 17.8902 13.3249 17.8469 13.5209 17.6675C13.7107 17.4942 13.9253 17.386 14.0747 17.386C14.2116 17.386 14.476 17.4664 14.6658 17.5654C14.8524 17.6644 14.9053 17.7139 19.2422 22.0913C20.776 23.635 20.7822 23.6443 20.8071 24.1145C20.8164 24.3094 20.8071 24.3929 20.7667 24.4795C20.7262 24.5631 18.0382 27.2421 16.3178 28.9126C16.2991 28.9343 16.2151 28.9807 16.1311 29.0178C15.9227 29.1137 15.7049 29.0921 15.3813 28.9436C15.1449 28.8353 15.1013 28.7951 14.3111 28C13.8569 27.5422 12.5938 26.2707 11.5049 25.1756C9.36445 23.0225 9.30534 22.9575 9.19334 22.6419C9.15289 22.5337 9.156 22.5213 9.22445 22.4471C9.37067 22.2924 9.39556 22.2305 9.39556 22.0542C9.39556 21.9119 9.38 21.8593 9.30534 21.7603C9.25556 21.6953 8.63645 21.0611 7.93022 20.3527C6.70445 19.1276 6.636 19.0627 6.50845 19.0441C6.22534 19.0008 6.19111 19.0225 5.6 19.5948C3.49378 21.6365 1.80133 23.3133 1.64889 23.5112C1.428 23.7989 1.29733 24.0526 1.23511 24.3094C1.19156 24.4857 1.19156 24.5228 1.23511 24.6652C1.26 24.7518 1.30978 24.86 1.344 24.9034C1.37822 24.9467 1.85733 25.4416 2.41111 26.0016C3.28845 26.8925 3.43467 27.0317 3.56533 27.0781C3.892 27.1926 4.22489 27.1091 4.69156 26.7997C4.89689 26.6605 5.00267 26.5708 5.46311 26.1315C5.62178 25.983 5.76178 25.8624 5.77734 25.8624C5.79289 25.8624 5.95156 26.0109 6.12889 26.1965C6.30622 26.379 7.58489 27.6597 8.96934 29.0426C10.4253 30.4996 11.5267 31.6257 11.5858 31.7185C11.7911 32.0402 11.9093 32.4177 11.8689 32.6157C11.8533 32.6899 11.704 32.857 11.2778 33.287C10.9636 33.6025 10.6867 33.9026 10.6587 33.9583C10.5933 34.0851 10.5964 34.2243 10.6618 34.3635C10.7178 34.4842 12.7369 36.5352 12.9547 36.693C13.104 36.8044 13.3404 36.8167 13.4804 36.7239C13.6236 36.6311 15.9289 34.3357 16.0129 34.2027C16.1156 34.0449 16.1933 33.8098 16.2213 33.587C16.2493 33.3829 16.2929 33.3488 16.5293 33.3488C16.7689 33.3488 17.1764 33.188 17.4222 33.0024C17.4876 32.9498 19.4973 30.9853 22.8356 27.703C23.4267 27.1215 24.0862 26.4749 24.3009 26.2614C24.5156 26.0511 24.7364 25.8191 24.7893 25.751C24.9169 25.5839 25.0756 25.2684 25.0756 25.1756C25.0756 25.1354 25.0973 25.0364 25.1222 24.9529C25.1813 24.7549 25.1813 24.5167 25.1191 24.2413C25.0413 23.901 24.9573 23.6659 24.8516 23.4803C24.8391 23.4556 24.8173 23.4123 24.8049 23.3875C24.7427 23.2452 24.4347 22.8956 23.8498 22.3047C23.1871 21.6365 22.2196 20.6621 18.2311 16.6404C17.0427 15.4432 15.9351 14.3264 15.7733 14.1563C15.6116 13.9892 15.3596 13.7634 15.2133 13.652C14.9489 13.4509 14.4916 13.2096 14.3796 13.2096C14.3453 13.2096 14.2582 13.188 14.1867 13.1632C14.0093 13.1013 13.3249 13.1044 13.1289 13.1694Z" fill="white"/>
<path d="M12.9548 36.6929C13.1042 36.8042 13.3406 36.8166 13.4806 36.7238C13.6238 36.6309 15.929 34.3356 16.013 34.2026C16.1157 34.0448 16.1935 33.8097 16.2215 33.5869C16.2495 33.3828 16.2931 33.3487 16.5295 33.3487C16.7691 33.3487 17.1766 33.1879 17.4224 33.0022C17.4878 32.9496 19.4976 30.9851 22.8357 27.7029C23.4268 27.1213 24.0864 26.4748 24.3011 26.2613C24.5157 26.051 24.7366 25.8189 24.7895 25.7509C24.9171 25.5838 25.0757 25.2683 25.0757 25.1755C25.0757 25.1353 25.0975 25.0363 25.1224 24.9527C25.1815 24.7548 25.1815 24.5165 25.1193 24.2412L25.112 24.2096C25.0362 23.8863 24.9542 23.66 24.8517 23.4802L24.805 23.3874C24.7428 23.2451 24.4348 22.8955 23.8499 22.3046L22.2878 20.73C21.4645 19.9001 20.2255 18.6511 18.2313 16.6403L17.3686 15.771C16.5482 14.9438 15.8948 14.2838 15.7735 14.1561L15.7421 14.1242C15.5806 13.9613 15.3506 13.7563 15.2135 13.6519L15.1882 13.6329C14.9208 13.436 14.4882 13.2095 14.3797 13.2095C14.3455 13.2095 14.2584 13.1879 14.1868 13.1631C14.0123 13.1022 13.3463 13.1042 13.1386 13.1663L13.1291 13.1693C12.6842 13.3178 12.6375 13.3549 11.645 14.3387L10.7024 15.2667V15.6875L11.5766 16.5753C12.8304 17.8499 12.821 17.8406 12.9984 17.8623C13.2037 17.8901 13.325 17.8468 13.521 17.6674C13.7049 17.4995 13.9121 17.3927 14.0606 17.3862L14.0748 17.3858C14.2074 17.3859 14.4598 17.4613 14.6479 17.556L14.6659 17.5653C14.8526 17.6643 14.9055 17.7138 19.2424 22.0912C20.7762 23.6349 20.7824 23.6442 20.8073 24.1144C20.8166 24.3093 20.8073 24.3928 20.7668 24.4794C20.7275 24.5605 18.2037 27.0771 16.4819 28.7531L16.3179 28.9125C16.3004 28.9328 16.2255 28.9749 16.147 29.0106L16.1313 29.0177C15.9228 29.1136 15.705 29.0919 15.3815 28.9435L15.3598 28.9335C15.1416 28.8319 15.0768 28.7701 14.3113 27.9999C13.857 27.5421 12.5939 26.2706 11.505 25.1755C9.36461 23.0224 9.30549 22.9574 9.19349 22.6418L9.18643 22.6226C9.15369 22.5318 9.16042 22.5165 9.22459 22.4469C9.37082 22.2923 9.39572 22.2304 9.39572 22.054L9.39551 22.0284C9.39353 21.905 9.37548 21.853 9.30548 21.7602L9.29917 21.7524C9.21695 21.6555 8.61453 21.0389 7.93037 20.3526L7.71381 20.1362C6.69583 19.1196 6.62819 19.0614 6.50861 19.044C6.24319 19.0034 6.19651 19.0199 5.70465 19.4937L5.60016 19.5946C3.52684 21.6045 1.85447 23.2606 1.6573 23.5008L1.64905 23.5111C1.42817 23.7988 1.2975 24.0525 1.23527 24.3093C1.19172 24.4856 1.19172 24.5227 1.23527 24.665C1.26016 24.7517 1.30993 24.8599 1.34415 24.9033C1.37838 24.9466 1.85749 25.4415 2.41126 26.0015C3.28859 26.8924 3.43482 27.0316 3.56548 27.078C3.89215 27.1925 4.22504 27.109 4.69171 26.7996C4.89704 26.6604 5.00281 26.5707 5.46325 26.1314C5.61695 25.9875 5.75314 25.8698 5.77566 25.8626L5.77748 25.8623C5.79206 25.8623 5.93243 25.9928 6.09603 26.162L6.12905 26.1964C6.28425 26.3561 7.2826 27.3566 8.45721 28.5306L8.9695 29.0425C10.4027 30.4767 11.4923 31.5903 11.5824 31.7133L11.5859 31.7184C11.7913 32.0401 11.9095 32.4175 11.8691 32.6155C11.8535 32.6898 11.7041 32.8568 11.2779 33.2868C10.9637 33.6024 10.6868 33.9025 10.6588 33.9582C10.5935 34.085 10.5966 34.2242 10.6619 34.3634C10.7181 34.4842 12.7371 36.5351 12.9548 36.6929ZM13.2379 36.3204C13.2352 36.3198 13.2328 36.3192 13.2308 36.3185C13.2306 36.3185 13.2305 36.3184 13.2303 36.3183C13.2301 36.3182 13.2298 36.318 13.2296 36.3178C13.2282 36.3165 13.1949 36.2886 13.1162 36.2148C13.0436 36.1467 12.9494 36.0559 12.8401 35.9488C12.6219 35.735 12.3494 35.4621 12.0812 35.1896C11.8129 34.9171 11.5507 34.6468 11.3529 34.4379C11.2536 34.3332 11.1726 34.246 11.1157 34.1826C11.1076 34.1736 11.1002 34.1653 11.0934 34.1577C11.1216 34.1252 11.1591 34.0833 11.205 34.0336C11.2988 33.9319 11.4205 33.8046 11.5524 33.671L11.6095 33.6134L11.6103 33.6126C11.8229 33.398 11.9756 33.24 12.0781 33.124C12.129 33.0663 12.176 33.0097 12.2138 32.9554C12.2438 32.9123 12.2986 32.8288 12.3236 32.7207L12.3259 32.7102L12.3264 32.7079L12.3302 32.6877C12.3673 32.4782 12.3209 32.2522 12.265 32.0747C12.2022 31.8752 12.1036 31.6636 11.98 31.4698C11.9462 31.4169 11.8897 31.3554 11.8626 31.3255C11.8206 31.2792 11.7642 31.219 11.6962 31.1474C11.5596 31.0036 11.3691 30.8068 11.1361 30.5685C10.7281 30.1513 10.1867 29.6038 9.56949 28.9848L9.30052 28.7154L9.3002 28.7151C7.91375 27.3302 6.63886 26.0532 6.46467 25.8739C6.37249 25.7775 6.28394 25.6894 6.21423 25.6235C6.17968 25.5908 6.14595 25.56 6.11688 25.5353C6.10332 25.5238 6.08398 25.5078 6.06258 25.4925C6.05272 25.4854 6.03317 25.4718 6.00792 25.4579C5.99537 25.451 5.97326 25.4395 5.9445 25.4287C5.92242 25.4204 5.86033 25.3982 5.77748 25.3982C5.6613 25.3982 5.57584 25.4431 5.57044 25.4457C5.54459 25.4581 5.52451 25.4705 5.51407 25.4771C5.49187 25.4913 5.47228 25.5059 5.45931 25.5158C5.43147 25.5372 5.40004 25.5633 5.36915 25.5898C5.31377 25.6374 5.24573 25.6984 5.17425 25.7648L5.14342 25.7935L5.14019 25.7965C4.68205 26.2336 4.59956 26.3003 4.43091 26.4148C4.02625 26.6827 3.85291 26.6825 3.73438 26.645C3.72013 26.6347 3.6776 26.6021 3.58804 26.5184C3.45341 26.3925 3.24667 26.1858 2.90137 25.8358L2.74469 25.6768L2.74399 25.6761C2.46802 25.3971 2.21083 25.1344 2.01867 24.9364C1.92251 24.8373 1.84317 24.755 1.78614 24.6951C1.75029 24.6575 1.72901 24.6348 1.71814 24.6232C1.71605 24.619 1.71361 24.614 1.71092 24.6081C1.70034 24.585 1.69143 24.5615 1.68606 24.5444L1.68398 24.5376L1.68171 24.5299C1.67678 24.5139 1.67352 24.5023 1.67138 24.4944C1.67344 24.4838 1.67655 24.4693 1.68155 24.4484L1.68845 24.42L1.68895 24.418L1.6931 24.4014C1.73761 24.2295 1.83152 24.0383 2.01958 23.7932L2.02321 23.789C2.02686 23.7847 2.03324 23.7774 2.04319 23.7664C2.06103 23.7465 2.08527 23.7204 2.11633 23.6875C2.17837 23.6218 2.26285 23.5345 2.36842 23.427C2.5793 23.2122 2.86928 22.9219 3.22136 22.573C3.9252 21.8754 4.8735 20.9471 5.92571 19.9271L6.02991 19.8264C6.12677 19.7331 6.20252 19.6613 6.26513 19.6048C6.32787 19.5483 6.36724 19.5167 6.39167 19.499C6.39215 19.4994 6.39267 19.4998 6.39317 19.5002C6.41607 19.5191 6.4473 19.5464 6.4904 19.5862C6.66781 19.7497 6.98239 20.0631 7.59955 20.6799C7.95155 21.033 8.28151 21.3673 8.52933 21.621C8.65343 21.748 8.75619 21.8541 8.83055 21.932C8.88683 21.9909 8.91679 22.0234 8.92892 22.0363C8.929 22.0415 8.92905 22.0474 8.92905 22.054C8.92905 22.0647 8.92888 22.0734 8.92869 22.0802C8.92292 22.0871 8.91543 22.0957 8.90556 22.1065L8.88457 22.1291C8.88324 22.1305 8.8819 22.1319 8.88059 22.1334C8.87025 22.1446 8.73868 22.2689 8.7077 22.4565C8.69157 22.5542 8.70594 22.636 8.71841 22.6866C8.72948 22.7315 8.74504 22.774 8.75487 22.8004C8.78752 22.8921 8.82665 22.9934 8.90914 23.1202C8.98502 23.2368 9.09049 23.3642 9.24296 23.5313C9.54791 23.8656 10.1075 24.4297 11.1732 25.5017L11.1732 25.5017L12.0071 26.3406C12.843 27.1816 13.6385 27.9826 13.9791 28.3258L13.9794 28.3261C14.3683 28.7174 14.5905 28.9405 14.7441 29.0762C14.9232 29.2343 15.0336 29.295 15.1859 29.3648L15.2214 29.3808C15.5863 29.5425 15.9473 29.6109 16.3208 29.4418H16.3208C16.3746 29.418 16.4299 29.3906 16.4781 29.3636C16.5019 29.3503 16.5288 29.3344 16.5549 29.3168C16.5678 29.308 16.6072 29.2816 16.6478 29.2408C17.5093 28.4043 18.6109 27.3173 19.5027 26.4286C19.9492 25.9836 20.344 25.5876 20.63 25.297C20.7728 25.152 20.8898 25.032 20.973 24.945C21.0142 24.9018 21.0493 24.8645 21.0756 24.8354C21.0885 24.8212 21.1021 24.8059 21.1143 24.7913C21.1203 24.7842 21.1287 24.7738 21.1377 24.7619C21.1407 24.7578 21.16 24.7326 21.1791 24.6967L21.1873 24.6807L21.1901 24.6748C21.2753 24.4923 21.2827 24.3224 21.2751 24.1309L21.2734 24.0923C21.2734 24.0915 21.2733 24.0908 21.2733 24.09C21.2676 23.982 21.2618 23.8358 21.2142 23.6811C21.164 23.5181 21.0783 23.3747 20.9606 23.2225C20.7416 22.9391 20.3276 22.5232 19.5748 21.7655L19.5748 21.7655C17.4075 19.578 16.3077 18.4688 15.7268 17.8947C15.1839 17.3581 15.0607 17.2512 14.9011 17.1642L14.8855 17.1558L14.8827 17.1544C14.7583 17.0895 14.6172 17.0342 14.4869 16.9946C14.366 16.9579 14.213 16.9218 14.0748 16.9218C13.8981 16.9218 13.7317 16.982 13.601 17.0483C13.4718 17.1138 13.3447 17.202 13.2285 17.3048L13.2055 17.3255C13.2053 17.3257 13.2051 17.3258 13.205 17.326C13.1436 17.3821 13.1135 17.4007 13.1038 17.4059C13.0989 17.406 13.0893 17.4058 13.0731 17.4039C13.0588 17.3925 13.0369 17.374 13.0052 17.3454C12.8621 17.2159 12.6165 16.9685 12.1326 16.4769L11.9102 16.2508L11.91 16.2507L11.1691 15.4981V15.4603L11.9734 14.6684L11.9745 14.6673L12.1521 14.4915C12.5388 14.1093 12.7378 13.9183 12.8823 13.8044C13.0114 13.7026 13.0751 13.6768 13.2766 13.6095H13.2766C13.2706 13.6115 13.3037 13.6025 13.3939 13.5944C13.4727 13.5873 13.5688 13.5832 13.6674 13.5827C13.7662 13.5821 13.8608 13.5853 13.9368 13.5914C14.0273 13.5986 14.05 13.6072 14.0323 13.601C14.0327 13.6011 14.0331 13.6012 14.0335 13.6014L14.0524 13.6078C14.0967 13.6225 14.1433 13.6359 14.1865 13.6463C14.2115 13.6524 14.262 13.6645 14.3189 13.6703C14.3248 13.6724 14.3324 13.6754 14.342 13.6793C14.3863 13.6975 14.4479 13.7266 14.5201 13.7649C14.6661 13.8422 14.8235 13.9395 14.93 14.0205C15.0547 14.1155 15.2892 14.325 15.4373 14.478C15.6135 14.6627 16.7211 15.7795 17.8991 16.9663C19.8936 18.9774 21.1325 20.2262 21.9555 21.0559L23.5177 22.6305C23.8076 22.9233 24.0235 23.1511 24.1726 23.3202C24.2473 23.4049 24.3015 23.4706 24.3384 23.5196C24.3798 23.5745 24.384 23.588 24.3773 23.5729C24.3806 23.5803 24.384 23.5877 24.3876 23.5949L24.3927 23.605C24.3931 23.6058 24.395 23.6096 24.3955 23.6105C24.3959 23.6114 24.3965 23.6126 24.397 23.6134C24.397 23.6135 24.397 23.6136 24.397 23.6136L24.3977 23.6149C24.3973 23.6141 24.3972 23.6139 24.3984 23.6164C24.4038 23.6271 24.3991 23.6177 24.4046 23.6286L24.411 23.6413C24.4138 23.647 24.4113 23.642 24.4142 23.6477C24.4144 23.6481 24.4144 23.6481 24.4146 23.6485C24.4148 23.6488 24.4148 23.6489 24.415 23.6493L24.4161 23.6514C24.4161 23.6515 24.4161 23.6516 24.4162 23.6516C24.4162 23.6517 24.4163 23.652 24.4164 23.652C24.4164 23.6521 24.4164 23.6522 24.4165 23.6522C24.4165 23.6523 24.4165 23.6524 24.4166 23.6524C24.4168 23.6528 24.4171 23.6535 24.4168 23.6528L24.417 23.6532C24.417 23.6533 24.4171 23.6536 24.4172 23.6536C24.4172 23.6537 24.4172 23.6538 24.4173 23.6538L24.4174 23.654C24.4228 23.6649 24.4181 23.6555 24.4235 23.6663L24.4261 23.6714C24.4262 23.6715 24.4262 23.6716 24.4263 23.6717L24.4264 23.6721C24.4269 23.673 24.4288 23.6768 24.4292 23.6776C24.4354 23.6898 24.4258 23.6708 24.4319 23.6829L24.432 23.6832C24.4321 23.6832 24.4321 23.6833 24.4321 23.6833C24.4321 23.6834 24.4322 23.6834 24.4322 23.6835C24.4327 23.6845 24.432 23.6832 24.4325 23.6841C24.433 23.685 24.4324 23.6839 24.4328 23.6847C24.4329 23.6849 24.433 23.6851 24.4331 23.6853C24.4355 23.6901 24.432 23.683 24.4343 23.6877L24.4399 23.6984C24.4418 23.702 24.4437 23.7055 24.4457 23.709L24.4527 23.7214C24.5247 23.8515 24.5938 24.0362 24.6642 24.3441C24.7143 24.5662 24.7051 24.7199 24.675 24.8207L24.6749 24.8209C24.6591 24.8739 24.6444 24.9315 24.6331 24.9843C24.6268 25.0139 24.6166 25.0643 24.6118 25.1186C24.6116 25.119 24.6115 25.1194 24.6114 25.1197C24.6019 25.1452 24.5854 25.183 24.5625 25.229C24.5158 25.3224 24.46 25.4144 24.4196 25.4679C24.4182 25.4695 24.4149 25.4736 24.4089 25.4805C24.4004 25.4902 24.3892 25.5029 24.375 25.5184C24.3468 25.5494 24.3102 25.5885 24.2676 25.6331C24.1931 25.7112 24.1031 25.8028 24.0124 25.8925L23.9735 25.9308C23.9727 25.9316 23.9719 25.9324 23.9711 25.9332C23.7575 26.1455 23.1003 26.7898 22.5075 27.3731V27.3731C20.8386 29.014 19.5019 30.3254 18.5744 31.233C18.1106 31.6868 17.7493 32.0395 17.5001 32.2818C17.3754 32.4031 17.2792 32.4963 17.2123 32.5606C17.1582 32.6127 17.1332 32.6361 17.1267 32.6426C17.0455 32.7013 16.9283 32.7643 16.8032 32.8131C16.6635 32.8676 16.5647 32.8847 16.5295 32.8847C16.4648 32.8847 16.3854 32.8866 16.3074 32.8997C16.2265 32.9134 16.1152 32.9441 16.0106 33.0251C15.8254 33.1686 15.7806 33.3783 15.7646 33.4852L15.7591 33.5242L15.7584 33.5294C15.7381 33.6909 15.6836 33.8464 15.6306 33.9354C15.6285 33.9378 15.6261 33.9406 15.6232 33.9439C15.6058 33.9634 15.58 33.9913 15.5455 34.0279C15.477 34.1005 15.3818 34.1991 15.2675 34.316C15.0392 34.5494 14.7403 34.8502 14.4388 35.1504C14.1373 35.4505 13.8347 35.7488 13.5991 35.9772C13.4811 36.0916 13.3812 36.1872 13.3074 36.2563C13.2794 36.2824 13.2562 36.3037 13.2379 36.3204ZM14.3047 13.6654C14.3012 13.6645 14.3009 13.6642 14.3043 13.6652C14.3045 13.6653 14.3046 13.6653 14.3047 13.6654ZM14.3797 13.6736C14.3761 13.6736 14.3725 13.6735 14.369 13.6734C14.3726 13.6735 14.3762 13.6736 14.3797 13.6736Z" fill="black"/>
</svg>
