<svg width="28" height="40" viewBox="0 0 28 40" fill="none" xmlns="http://www.w3.org/2000/svg">
<path d="M14.0466 2.66359C13.6515 2.73474 13.5644 2.7564 13.4244 2.80899C13.2221 2.88633 13.1288 2.92964 13.051 2.97604C12.8239 3.11835 12.3479 3.57001 10.4844 5.41378C3.70214 12.1207 3.64614 12.1764 3.48747 12.5136C3.36303 12.7765 3.23547 13.2931 3.23547 13.5437C3.23547 13.7974 3.40347 14.4378 3.51858 14.6172C3.5497 14.6667 3.58703 14.7316 3.59947 14.7564C3.65858 14.8894 3.95725 15.2019 5.64347 16.891C6.65458 17.9026 8.27547 19.5236 9.24303 20.495C10.2137 21.4633 11.3741 22.6296 11.8252 23.0812C12.6155 23.8701 12.9484 24.1609 13.1599 24.2413C13.1848 24.2506 13.2346 24.2723 13.2688 24.2908C13.3684 24.3465 13.6577 24.4115 13.947 24.4455C14.3701 24.4981 14.8617 24.4146 15.2195 24.2382C15.5212 24.0866 15.7857 23.8577 16.6381 23.007C17.811 21.8407 17.7955 21.9768 16.831 20.9776C15.599 19.703 15.5244 19.6288 15.3626 19.5855C15.2101 19.5422 15.039 19.5731 14.9332 19.6597C14.9084 19.6814 14.8026 19.7432 14.703 19.7958C14.5319 19.8856 14.4977 19.8917 14.2021 19.8917C13.695 19.8917 13.7728 19.9505 12.0524 18.2305C11.2404 17.4169 10.0021 16.1794 9.30214 15.4834C7.87103 14.0572 7.86792 14.0511 7.84614 13.618C7.83058 13.3426 7.87725 13.1539 8.01725 12.9436C8.07325 12.8569 8.53058 12.3836 9.03147 11.8948C9.52925 11.406 10.7581 10.1934 11.7599 9.20342C12.7617 8.21347 13.6297 7.37821 13.6888 7.34727C13.8444 7.26993 14.087 7.20806 14.2332 7.20806C14.3764 7.20806 14.619 7.26993 14.7777 7.34727C14.9021 7.40605 20.2657 12.7487 20.4088 12.9559C20.4617 13.0302 20.5021 13.1013 20.5021 13.1137C20.5021 13.1292 20.5239 13.1818 20.5488 13.2282C20.5799 13.2869 20.5955 13.4076 20.5955 13.5839C20.5955 14.0356 20.5675 14.0789 19.6341 15.0101L18.903 15.7432V15.9567C18.903 16.2104 18.8781 16.1733 19.4692 16.7982C19.7057 17.0456 20.0012 17.3581 20.1288 17.4942C20.7417 18.1501 20.8879 18.2862 21.0155 18.314C21.3048 18.379 21.3235 18.3697 22.1012 17.6056C23.7221 16.0124 24.6212 15.106 24.7332 14.9606C24.8981 14.7378 25.0319 14.4594 25.1097 14.1841C25.1688 13.9799 25.1688 13.2189 25.1097 13.0085C25.0164 12.6682 24.895 12.4331 24.6275 12.0866C24.6026 12.0526 22.9661 10.4099 20.9906 8.43621C19.015 6.45941 17.0581 4.49499 16.6412 4.07426C15.9724 3.39367 15.6612 3.10906 15.4466 2.97913C15.095 2.76568 14.3701 2.60172 14.0466 2.66359Z" fill="#E8144E"/>
<path d="M21.0155 18.314C21.3048 18.379 21.3235 18.3697 22.1013 17.6056C23.7221 16.0124 24.6212 15.106 24.7332 14.9606C24.8981 14.7378 25.0319 14.4594 25.1097 14.1841C25.1688 13.9799 25.1688 13.2189 25.1097 13.0085C25.0164 12.6682 24.895 12.4331 24.6275 12.0866C24.6024 12.0524 22.966 10.4098 20.9906 8.43621C19.015 6.45941 17.0581 4.49499 16.6413 4.07426C15.9724 3.39367 15.6612 3.10906 15.4466 2.97913C15.095 2.76568 14.3701 2.60172 14.0466 2.6636C13.6762 2.7303 13.5765 2.7535 13.4501 2.79947L13.4244 2.80899C13.2348 2.8815 13.1409 2.9241 13.0658 2.96737L13.051 2.97605C12.8239 3.11835 12.3479 3.57001 10.4844 5.41379C3.70215 12.1207 3.64614 12.1764 3.48747 12.5136C3.36497 12.7724 3.23945 13.2771 3.23556 13.5318L3.23547 13.5437C3.23547 13.7974 3.40348 14.4378 3.5186 14.6172C3.5497 14.6667 3.58702 14.7317 3.59946 14.7564C3.65489 14.8811 3.92088 15.1635 5.34329 16.5901L5.64348 16.891C6.5282 17.7761 7.87978 19.1279 8.85204 20.1027L9.24303 20.495C10.2137 21.4633 11.3742 22.6296 11.8253 23.0812C12.6031 23.8578 12.9378 24.1517 13.1499 24.2374L13.1599 24.2413C13.1848 24.2506 13.2346 24.2722 13.2688 24.2908C13.3653 24.3448 13.6398 24.4074 13.9199 24.4422L13.947 24.4455C14.3701 24.4981 14.8617 24.4145 15.2195 24.2382C15.5212 24.0866 15.7857 23.8577 16.6382 23.007C17.811 21.8407 17.7955 21.9768 16.831 20.9776L16.6133 20.7524C15.5894 19.6939 15.5143 19.6261 15.3626 19.5855C15.2149 19.5435 15.0497 19.5712 14.9434 19.6518L14.9332 19.6597C14.9083 19.6814 14.8026 19.7432 14.703 19.7958C14.5426 19.8799 14.5025 19.8906 14.2546 19.8917L14.2021 19.8917C13.695 19.8917 13.7728 19.9505 12.0524 18.2305C11.2404 17.4169 10.0021 16.1794 9.30214 15.4834C7.87103 14.0573 7.86791 14.0511 7.84613 13.618L7.84486 13.5924C7.83358 13.3308 7.88163 13.1473 8.01726 12.9436C8.07327 12.8569 8.5306 12.3836 9.03148 11.8948C9.52927 11.406 10.7581 10.1934 11.7599 9.20341C12.7617 8.21347 13.6297 7.3782 13.6888 7.34727C13.8395 7.27234 14.072 7.21194 14.2193 7.20824L14.2332 7.20806C14.3719 7.20806 14.604 7.26612 14.7626 7.34006L14.7777 7.34727C14.9013 7.4057 20.1821 12.6654 20.4045 12.9501L20.4088 12.9559C20.4617 13.0302 20.5021 13.1013 20.5021 13.1137C20.5021 13.1292 20.5239 13.1818 20.5488 13.2282C20.578 13.2833 20.5935 13.3928 20.5953 13.5515L20.5955 13.5839C20.5955 14.0074 20.5709 14.0719 19.7987 14.8456L19.6341 15.0101L18.903 15.7433V15.9567C18.903 16.1787 18.884 16.178 19.2752 16.593L19.4693 16.7982C19.7057 17.0457 20.0013 17.3581 20.1288 17.4942C20.7417 18.1501 20.8879 18.2862 21.0155 18.314ZM20.9685 13.0984C20.9687 13.1032 20.9688 13.1084 20.9688 13.1137C20.9688 13.1085 20.9687 13.1034 20.9685 13.0984ZM21.0621 13.5839C21.0621 13.4842 21.0578 13.3885 21.0466 13.3022C21.0369 13.2281 21.0176 13.1221 20.9668 13.0217L20.9618 13.0121L20.9606 13.0098C20.9583 13.0055 20.956 13.0011 20.9541 12.9971C20.9467 12.9674 20.9391 12.9486 20.9384 12.9465C20.9301 12.924 20.9214 12.9053 20.9157 12.8935C20.9039 12.8689 20.8906 12.845 20.8788 12.8249C20.8545 12.7833 20.8235 12.7353 20.7896 12.6877L20.7896 12.6877C20.7558 12.6405 20.7 12.5808 20.6654 12.5437C20.6154 12.4902 20.5482 12.4199 20.4672 12.3362C20.3049 12.1683 20.0817 11.941 19.8189 11.6751C19.2928 11.143 18.6042 10.453 17.9165 9.76808C17.2289 9.08313 16.5413 8.40239 16.0176 7.88886C15.7559 7.63227 15.5341 7.41642 15.3732 7.26239C15.2931 7.18566 15.2263 7.12255 15.1766 7.07686C15.1521 7.05436 15.129 7.03353 15.1092 7.01657C15.0996 7.00834 15.0874 6.99805 15.0742 6.98786C15.0731 6.98704 15.0349 6.95596 14.9831 6.93063L14.9831 6.93061C14.9821 6.93014 14.9812 6.92971 14.9802 6.92925C14.9794 6.92888 14.9787 6.92848 14.9779 6.92811L14.9779 6.92814C14.7695 6.82767 14.46 6.74402 14.2332 6.74402C14.0097 6.74402 13.7083 6.8233 13.5 6.92256L13.4801 6.93221C13.4772 6.93365 13.4743 6.93513 13.4715 6.93663C13.418 6.96461 13.3743 7.00208 13.3719 7.00402C13.3554 7.01755 13.3374 7.03305 13.3198 7.04861C13.2841 7.08026 13.238 7.12244 13.1843 7.17248C13.0763 7.27312 12.9288 7.41336 12.7533 7.58225C12.4019 7.92045 11.9329 8.37826 11.431 8.87428C10.4291 9.86429 9.20073 11.0765 8.70356 11.5647V11.5647C8.45078 11.8114 8.20839 12.0547 8.02111 12.2484C7.92754 12.3452 7.84608 12.4313 7.78331 12.5001C7.73425 12.5538 7.66791 12.6276 7.62811 12.6875L7.62809 12.6875C7.62753 12.6883 7.62698 12.6892 7.62642 12.69C7.62585 12.6909 7.62526 12.6917 7.62469 12.6926L7.62472 12.6926C7.42595 12.9934 7.36018 13.2817 7.38006 13.6411L7.38197 13.6797C7.38681 13.7741 7.39548 13.8975 7.43525 14.0271C7.48341 14.1839 7.56596 14.3204 7.67683 14.4626C7.88223 14.726 8.27024 15.112 8.97181 15.8112L8.97215 15.8115C9.67156 16.507 10.9093 17.744 11.7211 18.5574L11.7215 18.5577L12.0193 18.8556C12.6725 19.509 13.0423 19.8764 13.2957 20.0724C13.4538 20.1947 13.6063 20.2832 13.7869 20.3256C13.9451 20.3628 14.1072 20.3558 14.2021 20.3558C14.3373 20.3558 14.4679 20.3559 14.5872 20.3332C14.7102 20.3097 14.8055 20.2657 14.8867 20.224L14.9207 20.2063L14.922 20.2056C14.9775 20.1763 15.0352 20.1442 15.084 20.1154C15.1105 20.0998 15.1663 20.067 15.2139 20.0306C15.2169 20.0302 15.2204 20.03 15.2241 20.0301C15.2275 20.0303 15.2304 20.0308 15.2324 20.0312C15.2513 20.0451 15.2919 20.0782 15.3731 20.1553C15.5338 20.308 15.7969 20.5778 16.2758 21.0729L16.4946 21.2991C16.7516 21.5654 16.9077 21.7185 17.0099 21.8441C17.0292 21.8679 17.0432 21.8868 17.0532 21.9013C17.0355 21.9273 17.004 21.9693 16.9492 22.031C16.8303 22.1646 16.6619 22.3285 16.4176 22.5703L16.3082 22.6788C16.308 22.679 16.3078 22.6793 16.3076 22.6795C15.4411 23.5442 15.2309 23.7123 15.0105 23.8233C14.7455 23.9534 14.3636 24.0222 14.0365 23.9886L14.0049 23.985L14.0018 23.9847C13.8721 23.9694 13.7439 23.9473 13.6406 23.9239C13.5889 23.9121 13.5476 23.901 13.5177 23.8915C13.4998 23.8859 13.4907 23.8823 13.4881 23.8813C13.4338 23.8522 13.3679 23.8235 13.3266 23.8079L13.3266 23.8079C13.3046 23.7995 13.222 23.7562 13.0169 23.5777C12.8216 23.4078 12.5507 23.1479 12.1564 22.7543L12.1564 22.7542C11.7066 22.3039 10.5453 21.1368 9.57458 20.1685L9.5746 20.1684C8.60667 19.1967 6.98537 17.5752 5.97447 16.5638L5.97445 16.5639C5.13038 15.7184 4.63803 15.2218 4.3493 14.9202C4.20425 14.7687 4.11713 14.6731 4.06442 14.6106C4.03588 14.5767 4.02299 14.5588 4.01887 14.553L4.01687 14.5489C3.99778 14.5109 3.96021 14.4458 3.92782 14.393L3.91433 14.3712L3.912 14.3676C3.91309 14.3693 3.89526 14.3372 3.86543 14.2538C3.8389 14.1797 3.8109 14.088 3.78531 13.9908C3.73012 13.7811 3.70214 13.6068 3.70214 13.5437C3.70214 13.4748 3.72332 13.3261 3.76818 13.1433C3.80923 12.976 3.85942 12.8235 3.90143 12.7292L3.90973 12.7111L3.91016 12.7102C3.94897 12.6277 3.9376 12.5879 4.83536 11.6771C5.60439 10.8969 7.00705 9.50729 9.61853 6.92449L10.8134 5.7428L10.8135 5.74273L11.147 5.41302C11.8881 4.68096 12.3744 4.20512 12.7037 3.89245C13.0832 3.53207 13.2271 3.41537 13.2956 3.37139C13.3376 3.34673 13.4024 3.31462 13.5912 3.24237C13.68 3.20904 13.7306 3.19296 14.0596 3.13291L14.1297 3.1202L14.1347 3.11927C14.1977 3.10723 14.3813 3.11388 14.6328 3.17064C14.8734 3.22494 15.088 3.30513 15.2034 3.37517L15.2039 3.37551L15.2187 3.38466C15.3748 3.48372 15.6461 3.72563 16.3075 4.39859L16.3088 4.39995C16.7265 4.82146 18.684 6.7865 20.6596 8.7633L20.6598 8.76355C21.6474 9.75022 22.5501 10.6541 23.209 11.3154C23.5385 11.6461 23.8067 11.9159 23.994 12.105C24.0877 12.1997 24.1607 12.2737 24.2109 12.3248C24.2361 12.3505 24.2547 12.3697 24.267 12.3825C24.2679 12.3834 24.2687 12.3842 24.2694 12.385C24.4983 12.6836 24.5863 12.8636 24.6595 13.1306L24.6602 13.1334L24.6614 13.1395C24.6625 13.1457 24.6644 13.1564 24.6665 13.1724C24.6704 13.2016 24.6742 13.2394 24.6774 13.2849C24.6839 13.3759 24.6874 13.486 24.6874 13.5986C24.6874 13.7113 24.6839 13.8209 24.6775 13.9109C24.6742 13.956 24.6705 13.9931 24.6666 14.0214C24.6634 14.045 24.661 14.0558 24.6608 14.0573L24.6612 14.0557L24.6604 14.0586C24.5975 14.2813 24.4891 14.5058 24.3616 14.6798C24.3598 14.682 24.3564 14.686 24.3509 14.6922C24.3412 14.7033 24.3278 14.7183 24.3102 14.7374C24.275 14.7757 24.227 14.8265 24.1655 14.8904C24.0427 15.018 23.8712 15.1927 23.6512 15.4139C23.2117 15.856 22.5831 16.4795 21.7733 17.2755V17.2755C21.5775 17.4678 21.4356 17.6066 21.3258 17.7085C21.2376 17.7903 21.1819 17.8371 21.1459 17.8639C21.1308 17.8521 21.1068 17.8321 21.0721 17.7999C20.972 17.7073 20.8234 17.5542 20.5806 17.2957L20.4707 17.1783C20.4705 17.1782 20.4704 17.178 20.4702 17.1779C20.3415 17.0405 20.0449 16.7269 19.8076 16.4786C19.6584 16.3209 19.5538 16.2108 19.4767 16.1266C19.4206 16.0652 19.3884 16.0273 19.3697 16.0036V15.9343L19.9647 15.3377H19.9647C20.4136 14.8898 20.697 14.6065 20.8526 14.3753C20.9422 14.2422 21.002 14.1106 21.0334 13.961C21.0617 13.8256 21.0621 13.6927 21.0621 13.5839ZM20.9679 13.0866C20.9681 13.0898 20.9683 13.0932 20.9685 13.0967C20.9683 13.0933 20.9681 13.0899 20.9679 13.0866Z" fill="black"/>
<path d="M13.1288 13.1694C12.6839 13.3179 12.6373 13.355 11.6448 14.3388L10.7022 15.2669V15.4772V15.6876L11.5764 16.5754C12.8302 17.85 12.8208 17.8407 12.9982 17.8624C13.2035 17.8902 13.3248 17.8469 13.5208 17.6675C13.7106 17.4942 13.9253 17.386 14.0746 17.386C14.2115 17.386 14.4759 17.4664 14.6657 17.5654C14.8524 17.6644 14.9053 17.7139 19.2422 22.0913C20.7759 23.635 20.7822 23.6443 20.8071 24.1145C20.8164 24.3094 20.8071 24.3929 20.7666 24.4795C20.7262 24.5631 18.0382 27.2421 16.3177 28.9126C16.2991 28.9343 16.2151 28.9807 16.1311 29.0178C15.9226 29.1137 15.7048 29.0921 15.3813 28.9436C15.1448 28.8353 15.1013 28.7951 14.3111 28C13.8568 27.5422 12.5937 26.2707 11.5048 25.1756C9.36439 23.0225 9.30528 22.9575 9.19328 22.6419C9.15284 22.5337 9.15595 22.5213 9.22439 22.4471C9.37062 22.2924 9.3955 22.2305 9.3955 22.0542C9.3955 21.9119 9.37995 21.8593 9.30528 21.7603C9.2555 21.6953 8.63639 21.0611 7.93017 20.3527C6.70439 19.1276 6.63595 19.0627 6.50839 19.0441C6.22528 19.0008 6.19106 19.0225 5.59995 19.5948C3.49373 21.6365 1.80128 23.3133 1.64884 23.5112C1.42795 23.7989 1.29728 24.0526 1.23506 24.3094C1.1915 24.4857 1.1915 24.5228 1.23506 24.6652C1.25995 24.7518 1.30973 24.86 1.34395 24.9034C1.37817 24.9467 1.85728 25.4416 2.41106 26.0016C3.28839 26.8925 3.43461 27.0317 3.56528 27.0781C3.89195 27.1926 4.22484 27.1091 4.6915 26.7997C4.89684 26.6605 5.00261 26.5708 5.46306 26.1315C5.62173 25.983 5.76173 25.8624 5.77728 25.8624C5.79284 25.8624 5.9515 26.0109 6.12884 26.1965C6.30617 26.379 7.58484 27.6597 8.96928 29.0426C10.4253 30.4996 11.5266 31.6257 11.5857 31.7185C11.7911 32.0402 11.9093 32.4177 11.8688 32.6157C11.8533 32.6899 11.7039 32.857 11.2777 33.287C10.9635 33.6025 10.6866 33.9026 10.6586 33.9583C10.5933 34.0851 10.5964 34.2243 10.6617 34.3635C10.7177 34.4842 12.7368 36.5352 12.9546 36.693C13.1039 36.8044 13.3404 36.8167 13.4804 36.7239C13.6235 36.6311 15.9288 34.3357 16.0128 34.2027C16.1155 34.0449 16.1933 33.8098 16.2213 33.587C16.2493 33.3829 16.2928 33.3488 16.5293 33.3488C16.7688 33.3488 17.1764 33.188 17.4222 33.0024C17.4875 32.9498 19.4973 30.9853 22.8355 27.703C23.4266 27.1215 24.0862 26.4749 24.3008 26.2614C24.5155 26.0511 24.7364 25.8191 24.7893 25.751C24.9168 25.5839 25.0755 25.2684 25.0755 25.1756C25.0755 25.1354 25.0973 25.0364 25.1222 24.9529C25.1813 24.7549 25.1813 24.5167 25.1191 24.2413C25.0413 23.901 24.9573 23.6659 24.8515 23.4803C24.8391 23.4556 24.8173 23.4123 24.8048 23.3875C24.7426 23.2452 24.4346 22.8956 23.8497 22.3047C23.1871 21.6365 22.2195 20.6621 18.2311 16.6404C17.0426 15.4432 15.9351 14.3264 15.7733 14.1563C15.6115 13.9892 15.3595 13.7634 15.2133 13.652C14.9488 13.4509 14.4915 13.2096 14.3795 13.2096C14.3453 13.2096 14.2582 13.188 14.1866 13.1632C14.0093 13.1013 13.3248 13.1044 13.1288 13.1694Z" fill="#E8144E"/>
<path d="M12.9547 36.6929C13.1041 36.8042 13.3405 36.8166 13.4805 36.7238C13.6237 36.6309 15.9289 34.3356 16.013 34.2026C16.1156 34.0448 16.1934 33.8097 16.2214 33.5869C16.2494 33.3828 16.293 33.3487 16.5294 33.3487C16.769 33.3487 17.1765 33.1879 17.4223 33.0022C17.4877 32.9496 19.4975 30.9851 22.8356 27.7029C23.4267 27.1213 24.0863 26.4748 24.301 26.2613C24.5156 26.051 24.7365 25.8189 24.7894 25.7509C24.917 25.5838 25.0756 25.2683 25.0756 25.1755C25.0756 25.1353 25.0974 25.0363 25.1223 24.9527C25.1814 24.7548 25.1814 24.5166 25.1192 24.2412L25.1119 24.2096C25.0361 23.8863 24.9541 23.66 24.8516 23.4802L24.8049 23.3874C24.7427 23.2451 24.4347 22.8955 23.8498 22.3046L22.2877 20.73C21.4644 19.9001 20.2254 18.6511 18.2312 16.6403L17.3685 15.771C16.5481 14.9438 15.8947 14.2838 15.7734 14.1561L15.742 14.1242C15.5805 13.9613 15.3505 13.7563 15.2134 13.6519L15.1881 13.6329C14.9207 13.436 14.4881 13.2095 14.3796 13.2095C14.3454 13.2095 14.2583 13.1879 14.1867 13.1631C14.0122 13.1022 13.3462 13.1042 13.1385 13.1663L13.129 13.1693C12.6841 13.3178 12.6374 13.3549 11.6449 14.3387L10.7023 15.2667V15.6875L11.5765 16.5753C12.8303 17.8499 12.821 17.8406 12.9983 17.8623C13.2036 17.8901 13.325 17.8468 13.521 17.6674C13.7048 17.4995 13.912 17.3927 14.0605 17.3862L14.0747 17.3858C14.2073 17.3859 14.4597 17.4613 14.6478 17.556L14.6658 17.5653C14.8525 17.6643 14.9054 17.7138 19.2423 22.0912C20.7761 23.6349 20.7823 23.6442 20.8072 24.1144C20.8165 24.3093 20.8072 24.3928 20.7667 24.4794C20.7274 24.5605 18.2036 27.0771 16.4819 28.7531L16.3178 28.9125C16.3003 28.9328 16.2254 28.9749 16.1469 29.0106L16.1312 29.0177C15.9227 29.1136 15.705 29.0919 15.3814 28.9435L15.3598 28.9335C15.1415 28.8319 15.0767 28.7701 14.3112 27.9999C13.8569 27.5421 12.5938 26.2706 11.5049 25.1755C9.36452 23.0224 9.3054 22.9574 9.1934 22.6418L9.18633 22.6226C9.1536 22.5318 9.16033 22.5165 9.2245 22.4469C9.37072 22.2923 9.39563 22.2304 9.39563 22.054L9.39542 22.0284C9.39344 21.905 9.37539 21.853 9.30539 21.7602L9.29908 21.7524C9.21685 21.6555 8.61444 21.0389 7.93028 20.3526L7.71371 20.1362C6.69574 19.1196 6.62809 19.0614 6.50851 19.044C6.2431 19.0034 6.19642 19.0199 5.70456 19.4937L5.60006 19.5946C3.52675 21.6045 1.85438 23.2606 1.65721 23.5008L1.64896 23.5111C1.42807 23.7988 1.2974 24.0525 1.23518 24.3093C1.19163 24.4856 1.19163 24.5227 1.23518 24.665C1.26007 24.7517 1.30983 24.8599 1.34406 24.9033C1.37829 24.9466 1.8574 25.4415 2.41117 26.0015C3.2885 26.8924 3.43473 27.0316 3.56539 27.078C3.89206 27.1925 4.22495 27.109 4.69161 26.7996C4.89695 26.6604 5.00272 26.5707 5.46316 26.1314C5.61686 25.9875 5.75304 25.8698 5.77557 25.8626L5.77739 25.8623C5.79197 25.8623 5.93234 25.9928 6.09594 26.162L6.12896 26.1964C6.28416 26.3561 7.28251 27.3566 8.45712 28.5306L8.96941 29.0424C10.4026 30.4767 11.4922 31.5903 11.5823 31.7133L11.5858 31.7184C11.7912 32.0401 11.9094 32.4175 11.869 32.6155C11.8534 32.6898 11.7041 32.8568 11.2778 33.2868C10.9636 33.6024 10.6867 33.9025 10.6587 33.9582C10.5934 34.085 10.5965 34.2242 10.6618 34.3634C10.718 34.4842 12.737 36.5351 12.9547 36.6929ZM13.2378 36.3204C13.2351 36.3198 13.2327 36.3192 13.2307 36.3185C13.2306 36.3185 13.2304 36.3184 13.2302 36.3183C13.23 36.3182 13.2297 36.318 13.2295 36.3178C13.2281 36.3165 13.1948 36.2886 13.1162 36.2148C13.0435 36.1467 12.9493 36.0559 12.84 35.9488C12.6218 35.735 12.3493 35.4621 12.0811 35.1896C11.8129 34.9171 11.5506 34.6468 11.3528 34.4379C11.2535 34.3332 11.1725 34.246 11.1156 34.1826C11.1075 34.1736 11.1001 34.1653 11.0934 34.1577C11.1215 34.1252 11.159 34.0833 11.2049 34.0336C11.2987 33.9319 11.4204 33.8046 11.5523 33.671L11.6094 33.6134L11.6102 33.6126C11.8229 33.398 11.9755 33.24 12.078 33.124C12.129 33.0663 12.1759 33.0097 12.2137 32.9554C12.2437 32.9123 12.2985 32.8288 12.3235 32.7207L12.3258 32.7102L12.3263 32.7079L12.3301 32.6877C12.3672 32.4782 12.3208 32.2522 12.2649 32.0747C12.2021 31.8752 12.1035 31.6636 11.9799 31.4698C11.9461 31.4169 11.8896 31.3554 11.8625 31.3255C11.8205 31.2792 11.7642 31.219 11.6961 31.1474C11.5595 31.0036 11.369 30.8068 11.136 30.5685C10.728 30.1513 10.1866 29.6038 9.5694 28.9848L9.30043 28.7154L9.30011 28.7151C7.91366 27.3302 6.63877 26.0532 6.46458 25.8739C6.3724 25.7775 6.28385 25.6894 6.21414 25.6235C6.17959 25.5908 6.14586 25.56 6.11679 25.5353C6.10322 25.5238 6.08389 25.5078 6.06249 25.4925C6.05263 25.4854 6.03307 25.4718 6.00783 25.4579C5.99528 25.451 5.97317 25.4395 5.94441 25.4287C5.92233 25.4204 5.86024 25.3982 5.77739 25.3982C5.66121 25.3982 5.57575 25.4431 5.57035 25.4457C5.5445 25.4581 5.52442 25.4705 5.51398 25.4771C5.49178 25.4913 5.47219 25.5059 5.45922 25.5158C5.43138 25.5372 5.39995 25.5633 5.36906 25.5898C5.31367 25.6374 5.24564 25.6984 5.17416 25.7648L5.14333 25.7935L5.1401 25.7965C4.68195 26.2336 4.59947 26.3003 4.43082 26.4148C4.02616 26.6827 3.85282 26.6825 3.73429 26.645C3.72004 26.6347 3.67751 26.6021 3.58795 26.5184C3.45332 26.3925 3.24658 26.1858 2.90128 25.8358L2.7446 25.6768L2.7439 25.6761C2.46793 25.3971 2.21074 25.1344 2.01858 24.9364C1.92242 24.8373 1.84308 24.755 1.78604 24.6951C1.7502 24.6575 1.72892 24.6348 1.71805 24.6232C1.71596 24.619 1.71351 24.614 1.71083 24.6081C1.70025 24.585 1.69134 24.5615 1.68597 24.5444L1.68389 24.5375L1.68161 24.5299C1.67669 24.5139 1.67343 24.5023 1.67129 24.4944C1.67335 24.4838 1.67646 24.4693 1.68145 24.4484L1.68836 24.42L1.68886 24.418L1.69301 24.4014C1.73752 24.2295 1.83143 24.0383 2.01949 23.7932L2.02311 23.789C2.02676 23.7847 2.03315 23.7774 2.0431 23.7664C2.06094 23.7465 2.08517 23.7204 2.11624 23.6875C2.17828 23.6218 2.26276 23.5345 2.36833 23.427C2.57921 23.2122 2.86919 22.9219 3.22127 22.573C3.9251 21.8754 4.87341 20.9471 5.92561 19.9271L6.02982 19.8264C6.12668 19.7331 6.20243 19.6613 6.26504 19.6048C6.32778 19.5483 6.36715 19.5167 6.39157 19.499C6.39206 19.4994 6.39258 19.4998 6.39308 19.5002C6.41598 19.5191 6.44721 19.5464 6.49031 19.5862C6.66772 19.7497 6.9823 20.0631 7.59946 20.6799C7.95146 21.033 8.28142 21.3673 8.52924 21.621C8.65333 21.748 8.7561 21.8541 8.83046 21.932C8.88674 21.9909 8.9167 22.0234 8.92882 22.0363C8.9289 22.0415 8.92896 22.0474 8.92896 22.054C8.92896 22.0647 8.92879 22.0734 8.9286 22.0802C8.92283 22.0871 8.91534 22.0957 8.90547 22.1065L8.88448 22.1291C8.88315 22.1305 8.88181 22.1319 8.88049 22.1334C8.87016 22.1446 8.73858 22.2689 8.70761 22.4565C8.69148 22.5542 8.70585 22.636 8.71832 22.6866C8.72939 22.7315 8.74495 22.774 8.75478 22.8004C8.78743 22.8921 8.82656 22.9934 8.90905 23.1202C8.98493 23.2368 9.09039 23.3642 9.24287 23.5313C9.54782 23.8656 10.1074 24.4297 11.1731 25.5017L11.1731 25.5017L12.007 26.3406C12.8429 27.1816 13.6384 27.9825 13.979 28.3258L13.9793 28.3261C14.3682 28.7174 14.5904 28.9405 14.744 29.0762C14.9231 29.2343 15.0335 29.295 15.1858 29.3648L15.2214 29.3808C15.5862 29.5425 15.9472 29.6109 16.3207 29.4418H16.3207C16.3745 29.418 16.4298 29.3906 16.478 29.3636C16.5018 29.3503 16.5287 29.3344 16.5548 29.3168C16.5677 29.308 16.6071 29.2816 16.6477 29.2408C17.5092 28.4043 18.6109 27.3173 19.5026 26.4286C19.9492 25.9836 20.3439 25.5876 20.6299 25.297C20.7727 25.152 20.8897 25.032 20.9729 24.945C21.0142 24.9018 21.0492 24.8645 21.0755 24.8354C21.0884 24.8212 21.102 24.8059 21.1143 24.7913C21.1202 24.7842 21.1286 24.7738 21.1376 24.7619C21.1406 24.7578 21.1599 24.7326 21.1791 24.6967L21.1872 24.6807L21.19 24.6748C21.2752 24.4923 21.2826 24.3224 21.275 24.1309L21.2733 24.0923C21.2733 24.0915 21.2732 24.0908 21.2732 24.09C21.2675 23.982 21.2617 23.8358 21.2141 23.6811C21.1639 23.5181 21.0782 23.3747 20.9606 23.2225C20.7415 22.9391 20.3275 22.5232 19.5747 21.7655L19.5747 21.7655C17.4074 19.578 16.3076 18.4688 15.7267 17.8947C15.1838 17.3581 15.0606 17.2512 14.901 17.1642L14.8855 17.1558L14.8826 17.1544C14.7582 17.0895 14.6171 17.0342 14.4868 16.9946C14.3659 16.9579 14.2129 16.9218 14.0747 16.9218C13.898 16.9218 13.7316 16.982 13.6009 17.0483C13.4717 17.1138 13.3446 17.202 13.2284 17.3048L13.2054 17.3255C13.2052 17.3257 13.205 17.3258 13.2049 17.326C13.1435 17.3821 13.1134 17.4007 13.1037 17.4059C13.0988 17.406 13.0892 17.4058 13.073 17.4039C13.0587 17.3925 13.0368 17.374 13.0051 17.3454C12.862 17.2159 12.6164 16.9685 12.1325 16.4769L11.9101 16.2508L11.91 16.2507L11.169 15.4981V15.4603L11.9733 14.6684L11.9744 14.6673L12.152 14.4915C12.5387 14.1093 12.7377 13.9183 12.8822 13.8044C13.0113 13.7026 13.0751 13.6768 13.2765 13.6095H13.2765C13.2705 13.6115 13.3036 13.6025 13.3938 13.5944C13.4726 13.5873 13.5687 13.5832 13.6673 13.5827C13.7661 13.5821 13.8607 13.5853 13.9367 13.5914C14.0272 13.5986 14.0499 13.6072 14.0322 13.601C14.0326 13.6011 14.033 13.6012 14.0334 13.6014L14.0523 13.6078C14.0966 13.6225 14.1432 13.6359 14.1864 13.6463C14.2114 13.6524 14.2619 13.6645 14.3188 13.6703C14.3247 13.6724 14.3323 13.6754 14.3419 13.6793C14.3862 13.6975 14.4478 13.7266 14.52 13.7649C14.666 13.8422 14.8234 13.9395 14.9299 14.0205C15.0547 14.1155 15.2891 14.325 15.4373 14.478C15.6134 14.6627 16.721 15.7795 17.8991 16.9663C19.8936 18.9774 21.1324 20.2262 21.9555 21.0559L23.5176 22.6305C23.8075 22.9233 24.0234 23.1511 24.1725 23.3202C24.2473 23.4049 24.3014 23.4706 24.3384 23.5196C24.3797 23.5745 24.3839 23.588 24.3772 23.5729C24.3805 23.5803 24.3839 23.5877 24.3875 23.5949L24.3926 23.605C24.393 23.6058 24.395 23.6096 24.3954 23.6105C24.3958 23.6114 24.3964 23.6126 24.3969 23.6134C24.3969 23.6135 24.3969 23.6136 24.397 23.6136L24.3976 23.6149C24.3972 23.6141 24.3971 23.6139 24.3983 23.6164C24.4037 23.6271 24.399 23.6177 24.4045 23.6286L24.4109 23.6413C24.4137 23.647 24.4112 23.642 24.4141 23.6477C24.4143 23.6481 24.4143 23.6481 24.4145 23.6485C24.4147 23.6488 24.4147 23.6489 24.4149 23.6493L24.416 23.6514C24.416 23.6515 24.416 23.6516 24.4161 23.6516C24.4161 23.6517 24.4162 23.652 24.4163 23.652C24.4163 23.6521 24.4163 23.6522 24.4164 23.6522C24.4164 23.6523 24.4165 23.6524 24.4165 23.6524C24.4167 23.6528 24.417 23.6535 24.4167 23.6528L24.4169 23.6532C24.4169 23.6533 24.4171 23.6536 24.4171 23.6536C24.4171 23.6537 24.4171 23.6538 24.4172 23.6538L24.4173 23.654C24.4228 23.6649 24.418 23.6555 24.4234 23.6663L24.426 23.6714C24.4261 23.6715 24.4261 23.6716 24.4262 23.6717L24.4264 23.6721C24.4268 23.673 24.4288 23.6768 24.4292 23.6776C24.4353 23.6898 24.4257 23.6708 24.4318 23.6829L24.4319 23.6832C24.432 23.6832 24.432 23.6833 24.432 23.6833C24.4321 23.6834 24.4321 23.6834 24.4321 23.6835C24.4326 23.6845 24.4319 23.6832 24.4324 23.6841C24.4329 23.685 24.4323 23.6839 24.4327 23.6847C24.4328 23.6849 24.4329 23.6851 24.433 23.6853C24.4354 23.6901 24.4319 23.683 24.4342 23.6877L24.4398 23.6984C24.4417 23.702 24.4436 23.7055 24.4456 23.709L24.4526 23.7214C24.5246 23.8515 24.5937 24.0362 24.6641 24.3441C24.7142 24.5662 24.705 24.7199 24.6749 24.8207L24.6748 24.8209C24.659 24.8739 24.6443 24.9315 24.633 24.9843C24.6268 25.0139 24.6165 25.0643 24.6117 25.1186C24.6115 25.119 24.6114 25.1194 24.6113 25.1198C24.6018 25.1452 24.5853 25.183 24.5624 25.229C24.5157 25.3224 24.4599 25.4144 24.4195 25.4679C24.4181 25.4695 24.4148 25.4736 24.4088 25.4805C24.4003 25.4902 24.3891 25.5029 24.3749 25.5184C24.3467 25.5494 24.3101 25.5885 24.2675 25.6331C24.193 25.7112 24.103 25.8028 24.0123 25.8925L23.9734 25.9308C23.9726 25.9316 23.9718 25.9324 23.971 25.9332C23.7574 26.1455 23.1002 26.7898 22.5074 27.3731V27.3731C20.8385 29.014 19.5018 30.3254 18.5743 31.233C18.1105 31.6868 17.7492 32.0395 17.5 32.2818C17.3753 32.4031 17.2791 32.4963 17.2122 32.5606C17.1581 32.6127 17.1331 32.6361 17.1266 32.6426C17.0454 32.7013 16.9282 32.7643 16.8031 32.8131C16.6634 32.8676 16.5646 32.8847 16.5294 32.8847C16.4647 32.8847 16.3854 32.8866 16.3073 32.8997C16.2264 32.9134 16.1151 32.9441 16.0105 33.0251C15.8253 33.1686 15.7805 33.3783 15.7645 33.4852L15.759 33.5242L15.7583 33.5294C15.738 33.6909 15.6835 33.8464 15.6305 33.9354C15.6284 33.9378 15.626 33.9406 15.6231 33.9439C15.6057 33.9634 15.5799 33.9913 15.5454 34.0279C15.477 34.1005 15.3817 34.1991 15.2674 34.316C15.0391 34.5494 14.7402 34.8502 14.4387 35.1504C14.1372 35.4505 13.8346 35.7488 13.599 35.9772C13.481 36.0916 13.3812 36.1872 13.3073 36.2563C13.2793 36.2824 13.2562 36.3037 13.2378 36.3204ZM14.3047 13.6654C14.3011 13.6645 14.3008 13.6642 14.3042 13.6652C14.3044 13.6653 14.3045 13.6653 14.3047 13.6654ZM14.3796 13.6736C14.376 13.6736 14.3724 13.6735 14.369 13.6734C14.3725 13.6735 14.3761 13.6736 14.3796 13.6736Z" fill="black"/>
</svg>
