<svg width="18" height="18" viewBox="0 0 18 18" fill="none" xmlns="http://www.w3.org/2000/svg">
<path d="M6 15.75C6 14.6894 6 14.159 6.3295 13.8295C6.65901 13.5 7.18934 13.5 8.25 13.5H9.75C10.8106 13.5 11.341 13.5 11.6705 13.8295C12 14.159 12 14.6894 12 15.75V16.5H6V15.75Z" stroke="#3204FF" stroke-width="1.5" stroke-linecap="round" stroke-linejoin="round"/>
<path d="M9 9.75V13.5" stroke="#3204FF" stroke-width="1.5" stroke-linecap="round" stroke-linejoin="round"/>
<path d="M4.5 16.5H13.5" stroke="#3204FF" stroke-width="1.5" stroke-linecap="round" stroke-linejoin="round"/>
<path d="M9.77745 2.14988L10.5694 3.7468C10.6773 3.96909 10.9653 4.18232 11.2083 4.22315L12.6437 4.46359C13.5615 4.61784 13.7775 5.28927 13.1161 5.95163L12.0002 7.07672C11.8112 7.26726 11.7077 7.6347 11.7662 7.89788L12.0857 9.29063C12.3377 10.3931 11.7572 10.8195 10.7898 10.2434L9.44445 9.44033C9.20153 9.29513 8.80103 9.29513 8.5536 9.44033L7.20822 10.2434C6.24533 10.8195 5.66039 10.3885 5.91236 9.29063L6.23183 7.89788C6.29033 7.6347 6.18683 7.26726 5.99786 7.07672L4.88198 5.95163C4.22505 5.28927 4.43653 4.61784 5.35442 4.46359L6.78977 4.22315C7.02824 4.18232 7.31621 3.96909 7.4242 3.7468L8.2161 2.14988C8.64803 1.28337 9.34995 1.28337 9.77745 2.14988Z" stroke="#3204FF" stroke-width="1.5" stroke-linecap="round" stroke-linejoin="round"/>
</svg>
